<svg width="13" height="13" viewBox="0 0 13 13" fill="none" xmlns="http://www.w3.org/2000/svg">
<circle cx="6.5" cy="6.5" r="6" fill="white" stroke="#5A5858"/>
<path d="M6.56 4C6.67333 4 6.77333 4.03 6.86 4.09C6.95333 4.15 7 4.24667 7 4.38V6.16H8.77C8.88333 6.16 8.96667 6.2 9.02 6.28C9.08 6.35333 9.11 6.44667 9.11 6.56C9.11 6.67333 9.08 6.77 9.02 6.85C8.96667 6.93 8.88333 6.97 8.77 6.97H7V8.9C7 9.03333 6.95333 9.13 6.86 9.19C6.77333 9.25 6.67333 9.28 6.56 9.28C6.44667 9.28 6.34333 9.25 6.25 9.19C6.15667 9.13 6.11 9.03333 6.11 8.9V6.97H4.34C4.22667 6.97 4.14 6.93 4.08 6.85C4.02667 6.77 4 6.67333 4 6.56C4 6.44667 4.02667 6.35333 4.08 6.28C4.14 6.2 4.22667 6.16 4.34 6.16H6.11V4.38C6.11 4.24667 6.15667 4.15 6.25 4.09C6.34333 4.03 6.44667 4 6.56 4Z" fill="#5A5858"/>
</svg>
