<svg width="192" height="231" viewBox="0 0 192 231" fill="none" xmlns="http://www.w3.org/2000/svg">
<path d="M132.192 230.032H0V0H119.31C141.393 0 157.137 4.29393 166.543 12.8818C175.949 21.4697 180.652 33.9425 180.652 50.3003C180.652 66.8626 177.687 79.6422 171.757 88.639C165.827 97.4313 157.751 103.259 147.527 106.121V108.268C177.176 113.38 192 133.623 192 168.997C192 187.399 187.093 202.224 177.278 213.47C167.668 224.511 152.639 230.032 132.192 230.032ZM102.441 138.326H73.6102V176.051H101.827C112.256 176.051 117.47 169.712 117.47 157.035C117.47 144.562 112.46 138.326 102.441 138.326ZM96.9201 50.3003H73.6102V84.6518H96.3067C105.712 84.6518 110.415 78.9265 110.415 67.476C110.415 56.0256 105.917 50.3003 96.9201 50.3003Z" fill="url(#paint0_linear_121_904)"/>
<defs>
<linearGradient id="paint0_linear_121_904" x1="91.1365" y1="82.1543" x2="91.1365" y2="230.032" gradientUnits="userSpaceOnUse">
<stop stop-color="#70B4E0"/>
<stop offset="1" stop-color="#858FF1"/>
</linearGradient>
</defs>
</svg>
