<svg width="102" height="122" viewBox="0 0 102 122" fill="none" xmlns="http://www.w3.org/2000/svg">
<path d="M69.7065 121.299H0V0H62.9138C74.5585 0 82.8608 2.26425 87.8205 6.79276C92.7803 11.3213 95.2602 17.8984 95.2602 26.5241C95.2602 35.2576 93.6968 41.9964 90.57 46.7406C87.4432 51.3769 83.1842 54.4498 77.7931 55.9593V57.0914C93.4272 59.787 101.244 70.4613 101.244 89.1144C101.244 98.8183 98.6566 106.635 93.4812 112.566C88.4136 118.388 80.4887 121.299 69.7065 121.299ZM54.0185 72.9412H38.8157V92.8342H53.6951C59.194 92.8342 61.9434 89.4918 61.9434 82.8068C61.9434 76.2297 59.3018 72.9412 54.0185 72.9412ZM51.1073 26.5241H38.8157V44.6381H50.7839C55.7437 44.6381 58.2236 41.6191 58.2236 35.5811C58.2236 29.5431 55.8515 26.5241 51.1073 26.5241Z" fill="url(#paint0_linear_7_1066)"/>
<defs>
<linearGradient id="paint0_linear_7_1066" x1="50.6222" y1="0" x2="50.6222" y2="121.299" gradientUnits="userSpaceOnUse">
<stop stop-color="#DADADA"/>
<stop offset="1" stop-color="#9E9E9E"/>
</linearGradient>
</defs>
</svg>
