<svg width="17" height="23" viewBox="0 0 17 23" fill="none" xmlns="http://www.w3.org/2000/svg">
<circle cx="8.519" cy="14.4726" r="7.70113" fill="#858FF1"/>
<path d="M11.0202 10.88C11.1802 10.9733 11.2835 11.0933 11.3302 11.24C11.3769 11.3867 11.3435 11.5433 11.2302 11.71L9.4202 14.34L11.2802 17.06C11.3935 17.22 11.4335 17.38 11.4002 17.54C11.3669 17.6933 11.2669 17.82 11.1002 17.92C10.9535 18.0067 10.7969 18.0367 10.6302 18.01C10.4635 17.99 10.3302 17.9033 10.2302 17.75L8.5802 15.21L6.9202 17.73C6.82687 17.8767 6.69687 17.9667 6.5302 18C6.3702 18.04 6.21687 18.0167 6.0702 17.93C5.91687 17.8367 5.81687 17.7167 5.7702 17.57C5.7302 17.4167 5.76353 17.2633 5.8702 17.11L7.8202 14.32L6.0502 11.75C5.93687 11.59 5.90687 11.43 5.9602 11.27C6.0202 11.1033 6.13687 10.9733 6.3102 10.88C6.4702 10.7933 6.63353 10.77 6.8002 10.81C6.96687 10.8433 7.1002 10.94 7.2002 11.1L8.6802 13.46L10.1902 11.09C10.2902 10.9367 10.4135 10.8433 10.5602 10.81C10.7135 10.77 10.8669 10.7933 11.0202 10.88Z" fill="white"/>
</svg>
