<svg width="123" height="128" viewBox="0 0 123 128" fill="none" xmlns="http://www.w3.org/2000/svg">
<ellipse cx="61.5" cy="60.475" rx="61.5" ry="60.475" fill="#858FF1"/>
<mask id="mask0_9_898" style="mask-type:alpha" maskUnits="userSpaceOnUse" x="11" y="18" width="100" height="110">
<path d="M61.1272 68.1551C74.8217 68.1551 85.9137 57.027 85.9137 43.2878C85.9137 29.5485 74.8217 18.4204 61.1272 18.4204C47.4327 18.4204 36.3407 29.5485 36.3407 43.2878C36.3407 57.027 47.4327 68.1551 61.1272 68.1551ZM61.1272 73.6812C44.5822 73.6812 11.5542 84.7748 11.5542 101.312V117.89L61.1272 127.1L110.7 117.89V101.312C110.7 84.7748 77.6722 73.6812 61.1272 73.6812Z" fill="black"/>
</mask>
<g mask="url(#mask0_9_898)">
<ellipse cx="61.5" cy="60.475" rx="61.5" ry="60.475" fill="#CCD1FF"/>
</g>
</svg>
