<svg width="40" height="40" viewBox="0 0 40 40" fill="none" xmlns="http://www.w3.org/2000/svg">
<path d="M30.8617 40H9.13833C4.10806 40 0 35.8826 0 30.8617V9.13833C0 4.11737 4.11737 0 9.13833 0H30.8617C35.8919 0 40 4.11737 40 9.13833V30.8617C40 35.8919 35.8919 40 30.8617 40Z" fill="#FEE500"/>
<path d="M20.0565 8.09448C12.9016 8.09448 7.13159 12.7105 7.13159 18.3143C7.13159 21.9518 9.53193 25.1368 13.1324 26.9556L11.9138 31.507C11.8908 31.5752 11.8873 31.6484 11.9036 31.7186C11.9199 31.7887 11.9554 31.8529 12.0061 31.9039C12.0801 31.9692 12.1752 32.0052 12.2739 32.0055C12.3556 31.9989 12.4332 31.9666 12.4954 31.9132L17.7393 28.3773C18.5133 28.4842 19.2936 28.5396 20.075 28.5435C27.2206 28.5435 32.9999 23.9275 32.9999 18.3143C32.9999 12.7012 27.2021 8.09448 20.0565 8.09448Z" fill="#392020"/>
<path d="M11.6548 16.6987H10.2423C10.0673 16.7038 9.89435 16.659 9.74379 16.5695C9.67695 16.5276 9.61949 16.4723 9.575 16.4072C9.53052 16.3421 9.49998 16.2684 9.4853 16.1909C9.48081 16.1418 9.48081 16.0924 9.4853 16.0433C9.48091 15.9514 9.49876 15.8597 9.53733 15.7761C9.5759 15.6925 9.63406 15.6195 9.70687 15.5632C9.86782 15.4466 10.0621 15.3851 10.2608 15.3877H14.5168C14.6932 15.3815 14.8673 15.4299 15.0153 15.5262C15.0837 15.5663 15.1424 15.621 15.1871 15.6865C15.2318 15.752 15.2614 15.8265 15.2738 15.9048C15.2783 15.9508 15.2783 15.9972 15.2738 16.0433C15.2782 16.1366 15.2604 16.2295 15.2218 16.3146C15.1833 16.3996 15.1252 16.4743 15.0522 16.5325C14.8952 16.6489 14.7028 16.7077 14.5075 16.6987H13.1412V21.5548C13.1468 21.6583 13.1307 21.7617 13.0942 21.8586C13.0576 21.9556 13.0013 22.0439 12.9289 22.118C12.8594 22.1888 12.7758 22.2442 12.6836 22.2808C12.5914 22.3174 12.4925 22.3342 12.3934 22.3303C12.22 22.3352 12.0503 22.2798 11.9133 22.1734C11.7829 22.0695 11.6944 21.9219 11.6641 21.7579C11.6549 21.6905 11.6549 21.6222 11.6641 21.5548L11.6548 16.6987Z" fill="#FEE500"/>
<path d="M15.6815 15.7478C15.7221 15.5959 15.8175 15.4643 15.9492 15.3785C16.0896 15.2989 16.2496 15.2605 16.4108 15.2677H16.7616C16.9327 15.2616 17.1021 15.3031 17.2509 15.3877C17.4086 15.4938 17.5207 15.6552 17.5648 15.8401L19.4112 21.0562C19.4591 21.1923 19.4992 21.3311 19.5313 21.4717C19.5344 21.5302 19.5344 21.5887 19.5313 21.6471C19.5344 21.7371 19.5178 21.8266 19.4827 21.9096C19.4477 21.9925 19.3949 22.0668 19.3282 22.1272C19.2635 22.1935 19.1858 22.2457 19.1001 22.2807C19.0143 22.3156 18.9222 22.3325 18.8296 22.3303C18.6872 22.3444 18.5442 22.3103 18.4236 22.2332C18.303 22.1562 18.2119 22.0408 18.1649 21.9056L17.7772 20.7701H15.3491L14.9614 21.9056C14.9155 22.0434 14.8233 22.1611 14.7004 22.2385C14.5775 22.316 14.4316 22.3484 14.2874 22.3303C14.1313 22.3344 13.9784 22.2855 13.8535 22.1918C13.7319 22.095 13.6498 21.9572 13.6227 21.8041C13.6178 21.7519 13.6178 21.6993 13.6227 21.6471C13.6069 21.5555 13.6069 21.4618 13.6227 21.3702C13.6227 21.2687 13.6874 21.1578 13.7243 21.0562L15.6815 15.7478ZM16.6047 16.9572L15.7276 19.7269H17.4725L16.6047 16.9572Z" fill="#FEE500"/>
<path d="M19.7425 16.0433C19.7331 15.8361 19.8061 15.6337 19.9456 15.4802C20.0165 15.4087 20.1016 15.3528 20.1954 15.3162C20.2893 15.2796 20.3897 15.2631 20.4903 15.2677C20.6632 15.2657 20.832 15.3209 20.9704 15.4247C21.0986 15.533 21.1838 15.6837 21.2104 15.8494C21.2195 15.9137 21.2195 15.979 21.2104 16.0433V20.8994H23.7492C23.9252 20.8971 24.0982 20.9451 24.2478 21.0378C24.315 21.0792 24.3727 21.1344 24.4173 21.1996C24.4618 21.2648 24.4921 21.3386 24.5063 21.4163C24.5063 21.4163 24.5063 21.5087 24.5063 21.5548C24.5106 21.6468 24.4928 21.7384 24.4542 21.8219C24.4157 21.9055 24.3575 21.9786 24.2847 22.0349C24.1237 22.1515 23.9295 22.213 23.7308 22.2103H20.6103C20.4116 22.2231 20.214 22.1713 20.0472 22.0626C19.8979 21.951 19.7984 21.7853 19.7702 21.601C19.7634 21.4996 19.7634 21.3978 19.7702 21.2963L19.7425 16.0433Z" fill="#FEE500"/>
<path d="M24.6726 16.0434C24.6671 15.8368 24.7396 15.6357 24.8757 15.4802C25.014 15.3545 25.1915 15.2803 25.3782 15.2702C25.5649 15.2601 25.7493 15.3147 25.9005 15.4248C26.0315 15.5321 26.1199 15.6827 26.1497 15.8494C26.1543 15.914 26.1543 15.9788 26.1497 16.0434V18.3052L28.4854 15.6094C28.5754 15.5174 28.671 15.4312 28.7716 15.351C28.8664 15.2945 28.9752 15.2657 29.0855 15.2678C29.2469 15.2669 29.4047 15.3153 29.5379 15.4063C29.6007 15.4486 29.6543 15.5031 29.6955 15.5666C29.7367 15.63 29.7648 15.7011 29.7779 15.7756C29.7817 15.7939 29.7817 15.8128 29.7779 15.8311C29.7734 15.8524 29.7734 15.8743 29.7779 15.8956C29.7776 15.9928 29.7522 16.0882 29.7041 16.1727C29.6551 16.262 29.5962 16.3455 29.5287 16.4218L27.9961 18.1021L29.8425 20.964V21.0563C29.9384 21.1886 30.0132 21.3351 30.0641 21.4903V21.5364C30.0748 21.6434 30.0594 21.7514 30.0192 21.8511C29.979 21.9508 29.9152 22.0392 29.8333 22.1088C29.6793 22.2252 29.4909 22.287 29.2979 22.2843C29.1696 22.2896 29.0422 22.2608 28.9286 22.2011C28.8056 22.1187 28.7043 22.0079 28.6331 21.878L26.916 19.1084L26.0943 19.967V21.5087C26.0999 21.7153 26.0273 21.9164 25.8912 22.0719C25.8183 22.1432 25.7315 22.1989 25.6362 22.2354C25.541 22.2719 25.4392 22.2885 25.3373 22.2843C25.1669 22.2878 25.0006 22.2324 24.8665 22.1273C24.736 22.0234 24.6475 21.8759 24.6172 21.7119C24.6081 21.6445 24.6081 21.5761 24.6172 21.5087L24.6726 16.0434Z" fill="#FEE500"/>
</svg>
