<svg width="18" height="31" viewBox="0 0 18 31" fill="none" xmlns="http://www.w3.org/2000/svg">
<path d="M9.00254 10.966C9.18454 10.966 9.34921 11.018 9.49654 11.122C9.65254 11.2173 9.73054 11.369 9.73054 11.577V13.683H11.8495C12.0402 13.683 12.1789 13.748 12.2655 13.878C12.3609 14.008 12.4085 14.164 12.4085 14.346C12.4085 14.528 12.3609 14.6883 12.2655 14.827C12.1789 14.957 12.0402 15.022 11.8495 15.022H9.73054V17.323C9.73054 17.531 9.65254 17.687 9.49654 17.791C9.34921 17.8863 9.18454 17.934 9.00254 17.934C8.82054 17.934 8.65154 17.8863 8.49554 17.791C8.34821 17.687 8.27454 17.531 8.27454 17.323V15.022H6.15554C5.96487 15.022 5.82187 14.957 5.72654 14.827C5.63987 14.6883 5.59654 14.528 5.59654 14.346C5.59654 14.164 5.63987 14.008 5.72654 13.878C5.82187 13.748 5.96487 13.683 6.15554 13.683H8.27454V11.577C8.27454 11.369 8.34821 11.2173 8.49554 11.122C8.65154 11.018 8.82054 10.966 9.00254 10.966Z" fill="#858FF1"/>
<circle cx="9" cy="14" r="8.5" stroke="#858FF1"/>
</svg>
