<svg width="30" height="25" viewBox="0 0 30 25" fill="none" xmlns="http://www.w3.org/2000/svg">
<path d="M8.28516 0.742188C8.68359 0.520833 9.08203 0.410156 9.48047 0.410156C9.70182 0.410156 9.92318 0.432292 10.1445 0.476562C10.8086 0.697917 11.3177 1.09635 11.6719 1.67188C11.9818 2.33594 12.026 3 11.8047 3.66406C11.6276 4.32812 11.2513 4.85938 10.6758 5.25781C9.48047 6.14323 8.52865 7.07292 7.82031 8.04688C6.84635 9.375 6.29297 10.9909 6.16016 12.8945C6.16016 13.0716 6.22656 13.2266 6.35938 13.3594C6.49219 13.4479 6.64714 13.4922 6.82422 13.4922C6.82422 13.4922 6.84635 13.4922 6.89062 13.4922C8.39583 13.4922 9.67969 13.9792 10.7422 14.9531C11.8047 15.8828 12.3359 17.1445 12.3359 18.7383C12.3359 20.4648 11.8268 21.8594 10.8086 22.9219C9.79036 23.9401 8.48438 24.4492 6.89062 24.4492C4.72135 24.4492 3.08333 23.6523 1.97656 22.0586C0.869792 20.4648 0.316406 18.207 0.316406 15.2852C0.316406 9.08724 2.97266 4.23958 8.28516 0.742188ZM25.2852 0.742188C25.6836 0.520833 26.082 0.410156 26.4805 0.410156C26.7018 0.410156 26.9232 0.432292 27.1445 0.476562C27.8086 0.697917 28.3177 1.09635 28.6719 1.67188C28.9818 2.33594 29.026 3 28.8047 3.66406C28.6276 4.32812 28.2513 4.85938 27.6758 5.25781C26.4805 6.14323 25.5286 7.07292 24.8203 8.04688C23.8464 9.375 23.293 10.9909 23.1602 12.8945C23.1602 13.0716 23.2266 13.2266 23.3594 13.3594C23.4922 13.4479 23.6471 13.4922 23.8242 13.4922C23.8242 13.4922 23.8464 13.4922 23.8906 13.4922C25.3958 13.4922 26.6797 13.9792 27.7422 14.9531C28.8047 15.8828 29.3359 17.1445 29.3359 18.7383C29.3359 20.4648 28.8268 21.8594 27.8086 22.9219C26.7904 23.9401 25.4844 24.4492 23.8906 24.4492C21.7214 24.4492 20.0833 23.6523 18.9766 22.0586C17.8698 20.4648 17.3164 18.207 17.3164 15.2852C17.3164 9.08724 19.9727 4.23958 25.2852 0.742188Z" fill="white" fill-opacity="0.7"/>
</svg>
